<?xml version="1.0" encoding="UTF-8" ?>
<!DOCTYPE svg PUBLIC "-//W3C//DTD SVG 1.1//EN" "http://www.w3.org/Graphics/SVG/1.1/DTD/svg11.dtd">
<svg width="498pt" height="148pt" viewBox="0 0 498 148" version="1.1" xmlns="http://www.w3.org/2000/svg">
<g id="#f4f4f4ff">
</g>
<g id="#a60007ff">
<path fill="#a60007" opacity="1.00" d=" M 111.30 9.43 C 113.72 10.26 113.01 13.17 113.54 15.11 C 113.76 14.61 114.20 13.61 114.41 13.11 C 114.75 16.31 115.22 19.49 115.55 22.69 C 115.90 22.26 116.60 21.42 116.95 20.99 C 116.90 21.68 116.79 23.04 116.74 23.73 C 116.69 24.14 116.60 24.96 116.55 25.38 C 112.52 30.01 107.74 33.94 103.76 38.62 C 99.97 43.12 95.67 47.13 91.54 51.30 C 87.50 54.50 82.67 57.44 80.86 62.56 C 80.93 63.41 81.02 64.27 81.13 65.12 C 79.53 65.42 78.60 66.35 78.32 67.90 C 77.96 67.80 77.23 67.61 76.87 67.51 C 76.85 68.13 76.80 69.36 76.78 69.98 C 76.28 69.91 75.27 69.77 74.77 69.69 C 74.80 70.25 74.84 71.36 74.87 71.92 C 74.34 71.87 73.28 71.78 72.75 71.73 C 72.78 72.28 72.86 73.36 72.90 73.90 C 72.36 73.86 71.29 73.78 70.76 73.74 C 70.79 74.29 70.84 75.39 70.87 75.93 C 70.35 75.88 69.32 75.77 68.80 75.72 C 68.81 76.26 68.82 77.35 68.82 77.90 C 67.65 77.82 66.47 77.76 65.30 77.70 C 65.08 75.19 64.81 72.68 64.65 70.16 C 64.41 70.84 63.93 72.20 63.69 72.87 C 63.31 69.67 62.85 66.49 62.48 63.29 L 61.00 63.80 C 61.00 63.43 61.00 62.70 61.00 62.33 C 61.46 62.36 62.39 62.41 62.85 62.44 C 62.84 61.86 62.81 60.69 62.80 60.10 C 63.31 60.10 64.32 60.11 64.83 60.11 C 64.82 59.61 64.82 58.60 64.81 58.10 C 65.31 58.10 66.31 58.11 66.81 58.11 C 66.82 57.54 66.84 56.41 66.85 55.84 C 67.42 55.84 68.55 55.82 69.12 55.82 C 69.11 55.23 69.09 54.05 69.08 53.46 C 69.36 53.58 69.93 53.83 70.21 53.95 C 70.66 52.89 71.32 51.98 72.18 51.23 C 72.90 50.61 73.58 49.95 74.23 49.26 C 74.97 48.61 75.65 47.91 76.28 47.16 C 77.60 45.87 78.93 44.58 80.20 43.23 C 80.85 42.40 81.63 41.71 82.53 41.17 C 82.83 40.39 83.13 39.61 83.43 38.83 C 86.71 36.68 89.00 33.43 91.93 30.90 C 92.66 30.05 93.30 29.15 93.86 28.18 C 94.17 28.29 94.80 28.49 95.12 28.59 C 95.13 27.98 95.15 26.74 95.17 26.13 C 95.72 26.15 96.82 26.19 97.37 26.21 C 97.26 25.72 97.04 24.73 96.92 24.24 C 97.51 24.22 98.70 24.20 99.29 24.19 C 99.23 23.68 99.12 22.65 99.06 22.13 C 99.61 22.16 100.71 22.21 101.27 22.24 C 101.22 21.71 101.14 20.65 101.09 20.11 C 101.64 20.15 102.72 20.22 103.26 20.25 C 103.22 19.71 103.14 18.64 103.10 18.11 C 103.63 18.15 104.70 18.22 105.24 18.26 C 105.22 17.70 105.17 16.58 105.15 16.02 C 105.62 16.09 106.55 16.24 107.01 16.32 C 107.05 15.69 107.12 14.43 107.16 13.80 C 107.65 13.81 108.62 13.82 109.11 13.83 C 109.11 13.33 109.10 12.32 109.10 11.81 C 109.59 11.82 110.57 11.83 111.06 11.83 C 111.12 11.23 111.24 10.03 111.30 9.43 Z" />
</g>
<g id="#104a2cff">
<path fill="#104a2c" opacity="1.00" d=" M 129.65 10.62 C 130.61 10.48 131.57 10.34 132.54 10.20 C 132.88 13.06 133.29 15.92 133.60 18.78 C 133.86 18.31 134.37 17.37 134.63 16.89 C 134.86 19.58 135.18 22.26 135.40 24.95 C 135.68 24.50 136.22 23.60 136.50 23.15 C 136.63 24.74 136.78 26.33 136.93 27.91 C 136.50 27.87 135.63 27.79 135.19 27.75 C 135.19 28.35 135.17 29.57 135.17 30.17 C 134.58 30.18 133.42 30.18 132.83 30.19 C 132.95 30.62 133.20 31.50 133.32 31.93 C 132.80 31.93 131.77 31.93 131.25 31.92 C 131.20 32.58 131.10 33.89 131.06 34.55 C 130.78 34.47 130.22 34.31 129.94 34.23 C 129.73 34.49 129.31 34.99 129.10 35.25 C 120.52 44.29 111.21 52.64 102.83 61.87 C 99.51 66.28 95.55 70.11 91.41 73.73 C 91.09 74.07 90.46 74.75 90.14 75.09 C 89.52 75.89 88.89 76.69 88.25 77.48 C 87.56 77.85 86.17 78.60 85.48 78.97 C 85.26 78.00 84.83 76.06 84.61 75.10 C 84.36 75.31 83.86 75.75 83.61 75.97 C 83.38 73.64 83.10 71.32 82.86 68.99 C 82.58 69.20 82.03 69.62 81.75 69.83 C 81.55 68.26 81.35 66.69 81.13 65.12 C 81.02 64.27 80.93 63.41 80.86 62.56 C 84.97 59.37 88.68 55.67 91.54 51.30 C 95.67 47.13 99.97 43.12 103.76 38.62 C 107.74 33.94 112.52 30.01 116.55 25.38 C 116.60 24.96 116.69 24.14 116.74 23.73 C 117.25 23.82 118.28 24.00 118.80 24.09 C 118.81 23.49 118.85 22.28 118.87 21.67 C 119.35 21.80 120.32 22.04 120.81 22.16 C 120.81 21.57 120.83 20.41 120.83 19.83 C 121.42 19.82 122.59 19.81 123.17 19.81 C 123.04 19.33 122.79 18.36 122.66 17.88 C 123.29 17.85 124.53 17.81 125.15 17.78 C 125.03 17.29 124.79 16.31 124.67 15.82 C 125.23 15.84 126.34 15.89 126.89 15.91 C 126.88 15.33 126.86 14.15 126.86 13.56 C 127.29 13.71 128.15 14.00 128.58 14.15 C 128.94 12.97 129.29 11.79 129.65 10.62 Z" />
</g>
<g id="#002861ff">
<path fill="#002861" opacity="1.00" d=" M 61.19 32.34 C 62.63 32.60 64.07 32.86 65.51 33.13 C 64.78 33.12 63.33 33.09 62.60 33.08 C 62.65 34.72 62.67 36.35 62.66 37.98 C 62.29 37.80 61.56 37.42 61.19 37.23 C 60.95 39.32 60.69 41.42 60.46 43.51 C 59.00 43.74 57.54 43.96 56.08 44.18 C 56.29 44.46 56.71 45.02 56.92 45.30 C 54.77 45.59 52.63 45.92 50.50 46.25 C 50.71 46.59 51.12 47.27 51.33 47.61 C 49.79 47.87 48.24 48.13 46.69 48.39 C 46.90 48.75 47.30 49.49 47.51 49.86 C 46.80 49.87 45.40 49.90 44.70 49.91 C 44.80 50.38 45.02 51.31 45.12 51.78 C 44.48 51.81 43.18 51.88 42.53 51.91 C 42.62 52.40 42.78 53.38 42.86 53.86 C 42.36 53.78 41.37 53.61 40.87 53.52 C 40.84 54.15 40.77 55.40 40.74 56.03 C 40.28 55.93 39.34 55.74 38.87 55.64 C 38.85 56.34 38.81 57.74 38.78 58.44 C 38.41 58.22 37.65 57.79 37.27 57.58 C 37.21 58.37 37.09 59.95 37.03 60.75 C 36.66 60.56 35.92 60.20 35.55 60.02 C 35.32 61.58 35.09 63.13 34.86 64.68 C 34.52 64.50 33.85 64.12 33.51 63.94 C 33.09 66.94 32.66 69.93 32.33 72.94 C 32.08 72.18 31.56 70.66 31.31 69.90 C 31.02 76.28 30.99 82.65 31.44 89.02 L 32.48 86.84 C 32.77 89.43 33.13 92.01 33.46 94.59 C 33.75 94.28 34.34 93.65 34.64 93.33 C 34.87 95.00 35.10 96.66 35.35 98.32 C 35.71 98.12 36.45 97.70 36.82 97.49 C 36.86 98.25 36.92 99.79 36.96 100.56 C 37.34 100.42 38.10 100.16 38.47 100.02 C 38.78 101.11 39.07 102.20 39.37 103.28 C 41.14 104.38 42.62 105.88 43.74 107.63 C 44.81 107.93 45.89 108.22 46.97 108.52 C 46.84 108.90 46.58 109.66 46.45 110.04 C 47.21 110.08 48.75 110.14 49.51 110.18 C 49.30 110.54 48.89 111.28 48.68 111.64 C 50.36 111.89 52.05 112.14 53.73 112.39 C 53.38 112.68 52.67 113.26 52.32 113.55 C 54.85 113.85 57.39 114.20 59.93 114.45 C 59.48 114.73 58.57 115.29 58.12 115.57 C 64.61 116.00 71.11 116.06 77.60 115.45 C 77.17 115.17 76.32 114.61 75.89 114.33 C 78.27 114.08 80.64 113.76 83.01 113.46 C 82.82 113.12 82.46 112.45 82.27 112.11 C 83.85 111.89 85.42 111.67 87.00 111.45 C 86.81 111.08 86.43 110.34 86.24 109.97 C 87.04 109.91 88.64 109.79 89.44 109.73 C 89.22 109.35 88.78 108.60 88.56 108.23 C 89.27 108.20 90.70 108.15 91.41 108.12 C 91.28 107.66 91.01 106.75 90.88 106.30 C 91.53 106.25 92.82 106.17 93.47 106.12 C 93.39 105.62 93.24 104.62 93.16 104.11 C 93.64 104.21 94.60 104.39 95.08 104.49 C 95.12 103.82 95.20 102.49 95.24 101.83 C 95.64 101.95 96.45 102.21 96.85 102.34 C 96.92 101.64 97.06 100.26 97.13 99.57 C 97.51 99.71 98.27 99.99 98.65 100.13 C 98.90 98.60 99.15 97.06 99.41 95.53 C 99.73 95.79 100.38 96.32 100.71 96.58 C 100.79 95.68 100.93 93.88 101.01 92.98 C 101.30 93.19 101.90 93.63 102.19 93.84 C 102.84 91.51 101.99 87.67 105.41 87.61 C 105.32 87.40 105.15 86.98 105.07 86.78 C 107.16 85.82 108.86 84.20 109.85 82.11 C 110.15 82.23 110.76 82.45 111.06 82.56 C 111.11 81.83 111.22 80.36 111.27 79.63 C 111.87 79.81 113.06 80.17 113.65 80.35 C 113.48 85.16 113.04 89.95 112.48 94.72 C 112.19 94.31 111.61 93.48 111.32 93.06 C 111.17 94.97 111.01 96.87 110.83 98.77 C 110.50 98.47 109.85 97.86 109.52 97.55 C 109.27 99.26 109.01 100.98 108.75 102.69 C 108.44 102.42 107.82 101.87 107.51 101.60 C 107.23 103.16 106.94 104.73 106.65 106.29 C 106.30 106.10 105.59 105.72 105.24 105.53 C 105.14 106.24 104.93 107.68 104.83 108.40 C 104.44 108.29 103.65 108.07 103.26 107.95 C 103.22 108.61 103.14 109.92 103.10 110.58 C 102.78 110.47 102.14 110.25 101.82 110.14 C 101.37 111.20 100.72 112.13 99.88 112.91 C 99.08 113.73 98.16 114.37 97.11 114.83 C 97.23 115.14 97.46 115.76 97.58 116.07 C 96.93 116.10 95.62 116.16 94.96 116.19 C 95.04 116.58 95.21 117.38 95.29 117.77 C 94.54 117.82 93.03 117.92 92.28 117.98 C 92.45 118.34 92.80 119.07 92.97 119.43 C 91.43 119.72 89.89 120.01 88.35 120.31 C 88.63 120.63 89.20 121.26 89.48 121.58 C 87.67 121.80 85.87 122.02 84.07 122.25 C 84.44 122.54 85.18 123.13 85.56 123.42 C 82.06 123.89 78.56 124.37 75.04 124.65 C 75.28 124.94 75.74 125.53 75.98 125.82 C 69.82 126.09 63.65 126.11 57.51 125.66 C 58.42 125.40 60.25 124.88 61.16 124.62 C 57.49 124.51 53.86 123.98 50.22 123.56 C 50.61 123.28 51.38 122.72 51.77 122.43 C 49.93 122.24 48.10 122.05 46.26 121.84 C 46.52 121.52 47.05 120.89 47.31 120.57 C 45.73 120.27 44.14 119.95 42.56 119.63 C 42.80 119.29 43.27 118.60 43.51 118.26 C 42.71 118.21 41.10 118.10 40.30 118.04 C 40.47 117.68 40.81 116.96 40.97 116.60 C 39.59 116.28 38.22 115.95 36.84 115.62 C 36.99 115.19 37.30 114.34 37.45 113.92 C 36.81 113.88 35.53 113.81 34.89 113.77 C 34.90 113.23 34.92 112.16 34.92 111.62 C 34.51 111.76 33.68 112.03 33.27 112.17 C 33.23 111.50 33.15 110.18 33.12 109.52 C 32.69 109.63 31.82 109.85 31.39 109.96 C 31.08 108.66 30.77 107.36 30.46 106.05 C 30.08 106.20 29.31 106.49 28.93 106.64 C 28.88 105.85 28.77 104.28 28.72 103.50 C 28.37 103.74 27.67 104.22 27.32 104.47 C 27.05 102.80 26.80 101.14 26.55 99.48 C 26.23 99.78 25.59 100.38 25.27 100.68 C 25.05 98.84 24.84 97.01 24.64 95.17 C 24.34 95.56 23.75 96.33 23.45 96.72 C 23.12 93.85 22.77 90.98 22.62 88.10 C 22.36 88.80 21.86 90.22 21.61 90.93 C 20.83 83.48 20.93 75.98 21.47 68.51 L 22.48 71.49 C 22.67 68.68 22.96 65.88 23.20 63.07 C 23.49 63.39 24.05 64.04 24.34 64.36 C 24.74 62.12 25.21 59.89 25.62 57.65 C 25.93 57.96 26.54 58.58 26.84 58.89 C 26.88 57.99 26.94 56.18 26.97 55.28 C 27.33 55.46 28.05 55.83 28.41 56.01 C 28.70 54.58 29.00 53.15 29.31 51.73 C 29.70 51.90 30.47 52.23 30.86 52.40 C 30.88 51.71 30.91 50.33 30.93 49.64 C 31.38 49.73 32.28 49.91 32.73 50.00 C 32.77 49.34 32.86 48.03 32.91 47.38 C 33.24 47.50 33.90 47.75 34.23 47.88 C 34.53 46.43 35.43 45.55 36.90 45.23 C 36.79 44.89 36.56 44.22 36.45 43.89 C 37.10 43.85 38.40 43.77 39.05 43.73 C 38.94 43.33 38.71 42.54 38.60 42.15 C 39.37 42.11 40.90 42.05 41.66 42.02 C 41.44 41.65 41.00 40.91 40.78 40.54 C 42.29 40.23 43.80 39.91 45.31 39.58 C 45.10 39.24 44.68 38.57 44.47 38.23 C 46.14 37.97 47.81 37.71 49.48 37.47 C 49.16 37.15 48.52 36.50 48.20 36.18 C 50.16 36.03 52.13 35.89 54.10 35.76 C 53.67 35.46 52.82 34.88 52.39 34.59 C 55.53 34.29 58.67 33.94 61.82 33.77 C 61.66 33.41 61.35 32.69 61.19 32.34 Z" />
<path fill="#002861" opacity="1.00" d=" M 102.83 61.87 C 111.21 52.64 120.52 44.29 129.10 35.25 C 129.31 36.81 129.51 38.37 129.70 39.94 C 130.02 39.71 130.66 39.27 130.98 39.05 C 131.05 41.29 131.12 43.54 131.13 45.79 C 130.56 45.80 129.41 45.83 128.83 45.84 C 128.82 46.39 128.80 47.51 128.79 48.07 C 128.30 48.07 127.30 48.07 126.80 48.07 C 126.80 48.58 126.82 49.62 126.82 50.13 C 126.33 50.02 125.33 49.79 124.83 49.68 C 124.84 50.26 124.86 51.41 124.87 51.99 C 124.38 51.93 123.40 51.81 122.91 51.75 C 122.90 52.41 122.87 53.72 122.86 54.37 C 122.45 54.21 121.61 53.87 121.20 53.71 C 121.19 54.32 121.18 55.55 121.17 56.17 C 120.60 56.17 119.46 56.18 118.89 56.18 C 119.00 56.67 119.20 57.65 119.31 58.14 C 118.71 58.15 117.52 58.18 116.92 58.20 C 117.01 58.70 117.19 59.70 117.29 60.20 C 116.74 60.17 115.64 60.11 115.09 60.08 C 115.11 60.63 115.17 61.74 115.19 62.29 C 114.69 62.20 113.70 62.01 113.20 61.91 C 113.18 62.51 113.15 63.71 113.14 64.31 C 112.65 64.20 111.68 63.99 111.19 63.89 C 111.18 64.47 111.17 65.64 111.16 66.22 C 110.64 66.18 109.59 66.10 109.07 66.07 C 109.11 66.59 109.18 67.64 109.22 68.16 C 108.64 68.17 107.49 68.18 106.92 68.18 C 107.01 68.68 107.20 69.69 107.29 70.19 C 106.73 70.16 105.62 70.12 105.06 70.10 C 105.10 70.62 105.18 71.68 105.22 72.21 C 104.68 72.17 103.61 72.11 103.07 72.08 C 103.11 72.61 103.18 73.68 103.21 74.21 C 102.68 74.18 101.61 74.10 101.07 74.07 C 101.11 74.59 101.18 75.64 101.22 76.16 C 100.64 76.17 99.47 76.18 98.89 76.19 C 99.00 76.68 99.20 77.65 99.30 78.14 C 98.67 78.16 97.40 78.19 96.77 78.21 C 96.78 78.68 96.81 79.61 96.82 80.07 C 96.44 80.08 95.66 80.09 95.28 80.09 C 95.02 77.90 94.74 75.72 94.52 73.53 C 93.74 73.58 92.19 73.68 91.41 73.73 C 95.55 70.11 99.51 66.28 102.83 61.87 Z" />
<path fill="#002861" opacity="1.00" d=" M 55.24 48.77 C 56.40 48.57 57.57 48.36 58.73 48.14 C 58.82 52.02 58.71 55.91 58.81 59.79 C 57.49 59.97 56.17 60.16 54.86 60.35 C 55.00 60.73 55.29 61.48 55.43 61.86 C 54.76 61.93 53.42 62.07 52.74 62.14 C 52.80 62.59 52.92 63.49 52.98 63.93 C 52.52 63.89 51.60 63.80 51.15 63.76 C 51.08 64.40 50.93 65.69 50.86 66.33 C 50.46 66.22 49.65 65.99 49.24 65.87 C 48.97 67.43 48.71 68.99 48.47 70.55 C 48.18 70.20 47.61 69.51 47.33 69.17 C 46.31 75.55 46.19 82.04 47.51 88.38 C 47.84 88.09 48.50 87.51 48.83 87.22 C 48.86 88.08 48.93 89.79 48.96 90.64 C 49.33 90.49 50.07 90.19 50.45 90.04 C 50.70 91.14 50.99 92.23 51.29 93.32 C 52.58 93.59 53.39 94.35 53.74 95.61 C 54.93 95.91 56.13 96.21 57.34 96.49 C 57.10 96.83 56.62 97.50 56.38 97.83 C 58.23 98.04 60.08 98.23 61.94 98.39 C 61.48 98.68 60.58 99.26 60.13 99.55 C 65.71 100.19 71.33 100.10 76.89 99.37 C 76.70 99.03 76.31 98.34 76.11 98.00 C 77.00 97.95 78.77 97.84 79.65 97.79 C 79.40 97.46 78.90 96.80 78.65 96.47 C 80.09 96.16 81.54 95.84 82.98 95.53 C 82.84 95.11 82.57 94.28 82.43 93.86 C 83.19 93.81 84.73 93.71 85.49 93.66 C 85.38 93.31 85.15 92.61 85.04 92.26 C 89.02 92.64 93.01 92.32 97.00 92.25 C 97.00 92.62 97.00 93.35 97.00 93.72 C 96.58 93.70 95.74 93.65 95.32 93.63 C 95.07 94.82 94.80 96.01 94.54 97.20 C 93.23 97.62 92.46 98.54 92.22 99.96 C 91.99 99.84 91.53 99.60 91.30 99.48 C 91.02 101.12 90.05 102.06 88.39 102.30 C 88.54 102.59 88.83 103.15 88.98 103.44 C 87.54 103.78 86.10 104.13 84.67 104.48 C 84.90 104.80 85.37 105.43 85.61 105.74 C 83.94 106.03 82.28 106.31 80.62 106.59 C 80.93 106.91 81.55 107.56 81.86 107.88 C 79.87 108.01 77.87 108.12 75.87 108.23 C 76.30 108.53 77.16 109.13 77.59 109.43 C 71.36 110.15 65.10 109.99 58.85 109.70 C 59.63 109.45 61.18 108.93 61.96 108.67 C 59.39 108.38 56.82 108.05 54.26 107.75 C 54.54 107.44 55.10 106.81 55.38 106.49 C 53.72 106.26 52.05 106.02 50.40 105.78 C 50.62 105.46 51.08 104.84 51.31 104.52 C 50.16 104.18 49.01 103.84 47.86 103.50 C 46.66 101.78 45.07 100.41 43.34 99.25 C 43.02 98.18 42.71 97.11 42.41 96.03 C 42.05 96.19 41.33 96.49 40.97 96.65 C 40.93 95.82 40.85 94.18 40.82 93.35 C 40.47 93.61 39.76 94.11 39.41 94.36 C 39.19 92.59 38.97 90.82 38.74 89.06 C 38.45 89.44 37.87 90.20 37.57 90.58 C 36.37 83.44 36.29 76.20 37.04 69.01 C 37.34 69.22 37.94 69.64 38.23 69.85 C 38.54 67.64 38.91 65.43 39.27 63.24 C 39.57 63.52 40.18 64.10 40.48 64.39 C 40.73 62.87 40.99 61.35 41.26 59.84 C 41.65 59.96 42.45 60.22 42.84 60.35 C 42.91 59.70 43.05 58.40 43.13 57.75 C 43.58 57.80 44.49 57.90 44.94 57.94 C 44.90 57.42 44.82 56.37 44.78 55.85 C 45.37 55.83 46.55 55.81 47.15 55.79 C 47.14 55.33 47.13 54.40 47.12 53.93 C 47.71 53.93 48.87 53.93 49.45 53.93 C 49.29 53.54 48.98 52.76 48.83 52.37 C 50.33 52.08 51.84 51.81 53.35 51.53 C 53.10 51.20 52.61 50.53 52.36 50.20 C 53.26 50.15 55.06 50.04 55.96 49.99 C 55.78 49.69 55.42 49.08 55.24 48.77 Z" />
<path fill="#002861" opacity="1.00" d=" M 173.10 54.10 C 178.99 54.12 184.89 54.03 190.79 54.20 C 190.81 71.42 190.70 88.64 190.85 105.86 C 184.91 106.09 178.97 105.99 173.03 105.97 C 173.10 88.68 172.98 71.39 173.10 54.10 Z" />
<path fill="#002861" opacity="1.00" d=" M 199.00 54.00 C 203.84 54.00 208.69 54.00 213.53 54.00 C 213.44 54.46 213.25 55.37 213.16 55.82 C 213.63 55.74 214.56 55.56 215.02 55.47 C 215.04 56.24 215.07 57.79 215.09 58.56 C 215.45 58.37 216.18 58.00 216.55 57.81 C 216.82 59.32 217.10 60.82 217.39 62.32 C 217.74 62.11 218.45 61.69 218.81 61.48 C 218.85 62.30 218.94 63.93 218.99 64.75 C 219.34 64.56 220.05 64.20 220.41 64.02 C 220.68 65.51 220.96 67.01 221.25 68.50 C 221.59 68.29 222.28 67.88 222.62 67.67 C 222.90 69.23 223.18 70.79 223.46 72.35 C 223.79 72.11 224.44 71.63 224.76 71.39 C 225.04 72.91 225.31 74.44 225.58 75.97 C 225.95 75.79 226.68 75.43 227.04 75.25 C 227.10 76.08 227.20 77.74 227.26 78.57 C 227.53 78.34 228.08 77.87 228.36 77.63 C 228.76 78.67 229.56 80.76 229.96 81.80 C 230.41 80.87 231.31 79.02 231.76 78.09 C 232.05 78.23 232.63 78.52 232.92 78.67 C 232.93 77.86 232.96 76.24 232.98 75.43 C 233.36 75.58 234.13 75.88 234.51 76.03 C 234.80 74.53 235.10 73.03 235.40 71.54 C 235.72 71.79 236.36 72.29 236.68 72.54 C 236.98 70.96 237.28 69.38 237.57 67.81 C 237.90 68.05 238.57 68.54 238.90 68.78 C 238.92 67.93 238.97 66.22 238.99 65.37 C 239.36 65.56 240.11 65.94 240.48 66.13 C 240.78 64.60 241.09 63.07 241.41 61.54 C 241.73 61.79 242.37 62.29 242.69 62.54 C 242.97 60.96 243.24 59.38 243.50 57.80 C 243.85 58.02 244.56 58.45 244.91 58.67 C 244.93 57.87 244.96 56.27 244.98 55.47 C 245.44 55.56 246.37 55.74 246.84 55.83 C 246.75 55.37 246.56 54.46 246.47 54.00 C 251.31 54.00 256.15 54.00 261.00 54.00 C 261.00 71.33 261.00 88.67 261.00 106.00 C 255.69 105.99 250.38 106.04 245.08 105.92 C 244.61 97.87 245.85 89.69 244.06 81.75 C 243.56 83.96 242.96 86.14 242.44 88.35 C 242.14 88.10 241.53 87.62 241.22 87.37 C 240.95 88.90 240.68 90.44 240.43 91.97 C 240.07 91.79 239.34 91.44 238.98 91.26 C 238.94 92.11 238.86 93.79 238.82 94.63 C 238.48 94.39 237.80 93.91 237.46 93.67 C 237.18 95.22 236.91 96.77 236.63 98.33 C 236.28 98.12 235.60 97.71 235.26 97.51 C 234.99 98.87 234.74 100.23 234.49 101.59 C 231.76 101.71 229.04 101.77 226.32 101.80 C 226.46 101.38 226.75 100.56 226.89 100.14 C 226.40 100.25 225.41 100.45 224.91 100.56 C 224.87 99.78 224.79 98.23 224.75 97.46 C 224.41 97.70 223.72 98.19 223.38 98.43 C 223.08 96.90 222.78 95.38 222.48 93.85 C 222.11 94.05 221.36 94.44 220.99 94.63 C 220.97 93.80 220.92 92.15 220.90 91.32 C 220.56 91.54 219.87 91.98 219.53 92.19 C 219.23 90.69 218.92 89.19 218.62 87.69 C 218.28 87.89 217.62 88.29 217.29 88.49 C 216.97 86.99 216.67 85.49 216.36 84.00 C 216.15 83.99 215.72 83.98 215.51 83.98 C 214.51 91.27 215.20 98.66 215.00 106.00 C 209.67 106.00 204.33 106.00 199.00 106.00 C 199.00 88.67 199.00 71.33 199.00 54.00 Z" />
<path fill="#002861" opacity="1.00" d=" M 269.18 54.15 C 280.73 53.92 292.32 53.75 303.86 54.58 C 303.23 54.87 301.98 55.44 301.35 55.72 C 303.51 55.81 305.68 55.94 307.84 56.08 C 307.54 56.42 306.92 57.08 306.62 57.41 C 308.07 57.66 309.52 57.91 310.97 58.18 C 310.90 58.58 310.77 59.39 310.70 59.79 C 311.33 59.80 312.59 59.83 313.22 59.84 C 313.18 60.37 313.12 61.43 313.08 61.95 C 313.58 61.91 314.56 61.81 315.06 61.76 C 315.06 62.50 315.06 63.97 315.06 64.70 C 315.41 64.51 316.13 64.12 316.48 63.93 C 317.80 70.13 317.75 76.51 316.78 82.75 C 316.47 82.47 315.86 81.92 315.55 81.64 C 315.26 83.15 314.96 84.65 314.65 86.16 C 314.21 86.01 313.31 85.70 312.86 85.55 C 312.87 86.12 312.89 87.27 312.90 87.85 C 312.24 87.87 310.91 87.92 310.25 87.95 C 310.48 88.33 310.93 89.08 311.15 89.45 C 309.49 89.73 307.84 90.02 306.19 90.30 C 306.53 90.60 307.22 91.18 307.56 91.48 C 303.40 92.08 299.22 92.62 295.01 92.50 C 295.22 92.82 295.64 93.46 295.86 93.77 C 292.90 93.75 289.95 93.75 287.00 93.75 C 287.00 97.83 287.00 101.92 287.00 106.00 C 281.06 105.97 275.11 106.11 269.17 105.84 C 269.30 88.61 269.29 71.38 269.18 54.15 M 287.00 67.73 C 287.00 71.83 287.00 75.93 287.00 80.02 C 290.36 80.03 293.73 79.91 297.09 79.76 C 296.97 79.39 296.71 78.64 296.58 78.27 C 297.26 78.25 298.63 78.23 299.31 78.21 C 299.30 77.47 299.28 75.98 299.26 75.24 C 299.62 75.61 300.33 76.37 300.68 76.75 C 300.71 74.80 300.74 72.85 300.78 70.91 C 300.49 71.36 299.91 72.25 299.62 72.70 C 299.32 71.25 299.00 69.81 298.68 68.36 C 294.81 67.84 290.90 67.68 287.00 67.73 Z" />
<path fill="#002861" opacity="1.00" d=" M 337.44 54.27 C 343.44 53.78 349.46 54.07 355.46 54.00 C 355.38 54.47 355.20 55.40 355.11 55.87 C 355.54 55.77 356.39 55.58 356.82 55.49 C 357.00 57.23 357.18 58.98 357.35 60.73 C 357.66 60.39 358.26 59.70 358.56 59.36 C 358.77 61.16 358.98 62.95 359.21 64.75 C 359.51 64.47 360.13 63.91 360.44 63.62 C 360.80 65.88 361.23 68.13 361.61 70.39 C 361.91 70.08 362.50 69.46 362.80 69.15 C 363.04 70.99 363.27 72.84 363.51 74.68 C 363.80 74.30 364.39 73.53 364.69 73.14 C 364.85 75.04 365.03 76.93 365.22 78.83 C 365.52 78.49 366.12 77.80 366.42 77.46 C 366.79 79.64 367.23 81.80 367.61 83.99 C 367.91 83.80 368.53 83.44 368.84 83.25 C 369.05 84.97 369.27 86.68 369.49 88.40 C 369.83 88.11 370.49 87.54 370.82 87.25 C 371.00 89.08 371.17 90.91 371.34 92.75 C 371.65 92.40 372.26 91.70 372.56 91.35 C 372.77 93.15 372.98 94.95 373.20 96.75 C 373.51 96.47 374.13 95.90 374.44 95.61 C 374.80 97.87 375.23 100.12 375.61 102.38 C 375.92 102.06 376.53 101.42 376.84 101.10 C 376.87 101.98 376.92 103.75 376.95 104.64 C 377.46 104.63 378.49 104.61 379.00 104.60 C 379.00 104.79 379.01 105.18 379.01 105.37 C 372.52 106.51 365.89 105.94 359.34 105.82 C 359.06 103.75 358.72 101.68 358.42 99.62 C 358.10 99.93 357.46 100.57 357.14 100.89 C 357.12 100.06 357.10 98.39 357.08 97.56 C 350.40 97.54 343.70 97.32 337.03 97.63 C 336.83 98.21 336.44 99.37 336.25 99.95 C 335.98 99.79 335.46 99.47 335.19 99.31 C 335.03 101.06 334.88 102.81 334.73 104.56 C 334.32 104.45 333.51 104.22 333.10 104.11 C 333.19 104.58 333.37 105.53 333.46 106.00 C 327.30 105.85 321.10 106.42 314.98 105.49 C 314.98 105.24 315.00 104.73 315.00 104.47 C 315.47 104.50 316.39 104.54 316.86 104.57 C 317.07 102.91 317.29 101.26 317.51 99.60 C 317.83 99.89 318.47 100.46 318.79 100.75 C 318.98 99.02 319.17 97.29 319.36 95.55 C 319.70 95.69 320.38 95.98 320.72 96.12 C 320.86 94.49 321.02 92.87 321.18 91.25 C 321.52 91.54 322.19 92.10 322.52 92.39 C 322.70 90.67 322.89 88.96 323.08 87.25 C 323.42 87.45 324.10 87.84 324.43 88.04 C 324.64 86.40 324.85 84.75 325.07 83.11 C 325.38 83.31 326.01 83.71 326.32 83.91 C 326.64 81.64 327.04 79.38 327.39 77.11 C 327.64 77.51 328.15 78.30 328.40 78.69 C 328.78 76.44 329.23 74.21 329.62 71.96 C 329.92 72.17 330.53 72.58 330.83 72.78 C 331.05 71.05 331.27 69.32 331.49 67.60 C 331.82 67.89 332.49 68.46 332.82 68.75 C 333.00 66.93 333.17 65.10 333.35 63.27 C 333.65 63.62 334.27 64.31 334.58 64.65 C 334.77 62.85 334.97 61.06 335.19 59.27 C 335.50 59.54 336.14 60.08 336.45 60.35 C 336.76 58.32 337.12 56.30 337.44 54.27 M 344.50 78.89 C 344.25 78.48 343.75 77.67 343.50 77.26 C 343.30 79.10 343.11 80.95 342.91 82.79 C 342.52 82.66 341.76 82.41 341.37 82.29 C 341.53 83.27 341.70 84.25 341.86 85.23 C 344.61 85.25 347.36 85.26 350.11 85.29 C 350.35 84.76 350.84 83.68 351.08 83.14 C 350.96 82.33 350.73 80.70 350.61 79.88 C 350.33 80.05 349.77 80.40 349.49 80.57 C 349.15 78.23 348.75 75.90 348.39 73.57 L 347.00 74.93 C 346.72 74.02 346.17 72.22 345.90 71.32 C 345.37 73.83 344.89 76.35 344.50 78.89 Z" />
<path fill="#002861" opacity="1.00" d=" M 394.72 54.53 C 402.96 53.24 411.37 53.25 419.61 54.58 C 419.22 54.86 418.43 55.44 418.04 55.72 C 419.82 55.96 421.60 56.20 423.38 56.43 C 423.12 56.78 422.60 57.48 422.34 57.83 C 423.14 57.86 424.75 57.92 425.56 57.95 C 425.43 58.27 425.19 58.90 425.07 59.22 C 426.26 59.59 427.17 60.32 427.77 61.42 C 430.13 61.57 428.84 63.84 428.82 65.31 C 427.46 65.56 426.64 66.34 426.36 67.65 C 425.47 67.88 424.59 68.10 423.71 68.33 C 423.32 69.66 422.44 70.46 421.09 70.74 C 421.20 71.09 421.42 71.79 421.54 72.13 C 420.07 72.15 418.62 72.16 417.16 72.16 C 417.18 71.67 417.21 70.67 417.22 70.18 C 416.52 70.14 415.10 70.07 414.39 70.03 C 414.57 69.64 414.94 68.85 415.13 68.46 C 410.30 67.45 405.36 67.43 400.53 68.38 C 400.79 68.74 401.33 69.46 401.59 69.82 C 400.90 69.82 399.52 69.82 398.82 69.82 C 398.82 70.50 398.82 71.86 398.83 72.53 C 398.47 72.30 397.75 71.83 397.39 71.59 C 396.15 77.13 396.14 82.84 397.22 88.40 C 397.62 88.22 398.41 87.86 398.80 87.68 C 398.81 88.30 398.82 89.55 398.82 90.17 C 399.45 90.18 400.69 90.20 401.32 90.20 C 401.14 90.60 400.79 91.39 400.61 91.78 C 405.49 92.75 410.46 92.59 415.33 91.63 C 415.12 91.25 414.70 90.50 414.49 90.13 C 415.16 90.13 416.50 90.12 417.18 90.11 C 417.18 89.57 417.19 88.48 417.20 87.94 C 418.58 87.89 419.97 87.85 421.36 87.81 C 421.27 88.29 421.08 89.25 420.99 89.74 C 421.63 89.77 422.90 89.85 423.54 89.89 C 423.43 90.24 423.20 90.93 423.09 91.28 C 424.44 91.54 425.31 92.34 425.70 93.66 C 426.64 93.88 427.58 94.11 428.53 94.32 C 428.77 95.00 429.24 96.35 429.48 97.03 C 429.25 97.60 428.78 98.74 428.55 99.31 C 427.36 99.66 426.61 100.43 426.29 101.61 C 425.01 101.85 423.74 102.08 422.48 102.30 C 422.72 102.65 423.21 103.34 423.46 103.68 C 421.66 103.94 419.87 104.18 418.08 104.40 C 418.52 104.67 419.39 105.20 419.83 105.46 C 411.39 106.87 402.78 106.81 394.33 105.55 C 394.68 105.26 395.39 104.67 395.75 104.38 C 394.00 104.14 392.26 103.89 390.53 103.64 C 390.79 103.30 391.31 102.61 391.57 102.26 C 390.76 102.21 389.15 102.11 388.34 102.06 C 388.50 101.69 388.81 100.94 388.97 100.57 C 387.86 100.30 386.76 100.00 385.67 99.70 C 385.43 98.39 384.70 97.59 383.47 97.29 C 383.16 96.05 382.87 94.80 382.59 93.55 C 382.26 93.81 381.61 94.32 381.28 94.57 C 381.21 93.70 381.07 91.96 381.01 91.09 C 380.67 91.29 380.01 91.70 379.67 91.90 C 378.31 84.26 378.26 76.45 379.55 68.80 L 380.41 71.26 C 380.68 69.31 380.97 67.37 381.30 65.44 C 381.65 65.72 382.34 66.29 382.68 66.58 C 382.73 65.80 382.83 64.23 382.88 63.44 C 383.30 63.57 384.14 63.83 384.56 63.95 C 384.81 62.76 385.06 61.56 385.32 60.36 C 386.58 60.06 387.85 59.77 389.13 59.47 C 388.94 59.09 388.55 58.34 388.36 57.96 C 389.22 57.93 390.93 57.85 391.78 57.81 C 391.49 57.48 390.89 56.81 390.60 56.48 C 392.32 56.26 394.05 56.03 395.78 55.80 C 395.52 55.49 394.99 54.85 394.72 54.53 Z" />
<path fill="#002861" opacity="1.00" d=" M 431.02 54.00 C 446.95 54.09 462.89 53.81 478.82 54.16 C 478.71 58.66 478.77 63.18 478.69 67.69 C 473.54 67.78 468.39 67.74 463.25 67.79 C 463.26 80.52 463.25 93.26 463.25 106.00 C 457.30 105.92 451.33 106.26 445.40 105.67 C 445.63 93.04 445.44 80.39 445.50 67.76 C 440.73 67.76 435.96 67.69 431.20 67.84 C 430.64 63.24 431.05 58.61 431.02 54.00 Z" />
</g>
<g id="#7d2119ff">
<path fill="#7d2119" opacity="1.00" d=" M 80.86 62.56 C 82.67 57.44 87.50 54.50 91.54 51.30 C 88.68 55.67 84.97 59.37 80.86 62.56 Z" />
</g>
</svg>
