<?xml version="1.0" encoding="UTF-8" ?>
<!DOCTYPE svg PUBLIC "-//W3C//DTD SVG 1.1//EN" "http://www.w3.org/Graphics/SVG/1.1/DTD/svg11.dtd">
<svg width="293pt" height="290pt" viewBox="0 0 293 290" version="1.1" xmlns="http://www.w3.org/2000/svg">
<g id="#ffffffff">
<path fill="#ffffff" opacity="1.00" d=" M 192.84 166.77 C 193.23 164.93 194.51 163.59 195.76 162.30 C 196.72 162.76 197.69 163.21 198.65 163.67 C 198.72 164.42 198.85 165.93 198.92 166.68 C 196.90 166.81 194.87 166.83 192.84 166.77 Z" />
<path fill="#ffffff" opacity="1.00" d=" M 191.10 220.82 C 191.54 220.52 192.42 219.91 192.85 219.60 C 193.99 220.80 195.14 222.00 196.27 223.21 C 194.56 225.67 191.58 223.81 189.42 225.31 C 188.28 224.22 187.15 223.11 186.04 222.00 C 187.39 220.31 189.15 219.97 191.10 220.82 Z" />
<path fill="#ffffff" opacity="1.00" d=" M 154.31 224.72 C 154.87 223.42 155.46 222.14 156.04 220.85 C 157.98 221.92 159.96 222.93 161.96 223.88 C 161.20 225.49 160.43 227.11 159.56 228.66 C 159.81 231.98 159.99 235.32 160.70 238.58 C 162.10 240.22 164.00 241.32 165.68 242.64 C 164.58 244.28 163.48 245.91 162.40 247.56 C 161.02 246.53 159.64 245.51 158.25 244.51 C 154.10 245.32 149.86 245.04 145.66 245.13 C 144.47 248.13 143.74 251.94 140.59 253.55 C 137.80 255.15 133.75 255.22 131.44 252.74 C 129.82 250.51 129.79 247.66 129.60 245.03 C 125.79 245.05 121.96 245.29 118.19 244.73 C 116.35 244.69 115.86 242.62 114.85 241.46 C 111.78 241.43 109.51 243.57 106.93 244.85 C 102.91 245.29 98.85 245.00 94.82 245.08 C 94.78 243.05 94.75 241.02 94.58 239.00 C 99.11 239.19 103.65 239.21 108.18 239.02 C 106.04 236.79 103.11 235.74 100.10 235.31 C 102.19 233.54 104.31 229.30 107.46 231.60 C 111.69 233.96 116.04 236.35 120.95 236.91 C 120.80 237.66 120.65 238.42 120.50 239.19 C 124.26 238.90 128.17 239.58 131.85 238.84 C 135.44 234.83 138.38 230.25 141.82 226.10 C 143.12 228.37 144.84 230.50 145.49 233.09 C 145.98 235.25 144.55 237.17 143.89 239.12 C 148.08 239.19 152.27 239.22 156.44 238.79 C 155.52 234.14 156.57 229.01 154.31 224.72 M 136.15 238.99 C 137.65 238.65 139.89 239.36 140.77 237.71 C 141.92 236.38 141.46 234.61 140.96 233.12 C 138.82 234.56 137.67 236.99 136.15 238.99 M 133.06 245.27 C 133.62 246.29 134.15 247.33 134.84 248.28 C 136.97 249.63 139.53 248.63 141.75 248.10 C 141.23 247.22 140.71 246.36 140.20 245.49 C 137.83 245.15 135.44 245.06 133.06 245.27 Z" />
<path fill="#ffffff" opacity="1.00" d=" M 169.20 225.92 C 170.64 224.06 172.06 222.19 173.50 220.34 C 173.86 222.47 174.22 224.60 174.46 226.76 C 172.63 231.80 175.16 237.51 172.77 242.48 C 172.02 243.89 170.95 245.09 169.96 246.33 C 169.94 239.52 169.54 232.72 169.20 225.92 Z" />
<path fill="#ffffff" opacity="1.00" d=" M 213.27 227.43 C 213.07 224.58 215.70 222.50 217.98 221.30 C 218.15 223.48 218.52 225.71 218.05 227.88 C 217.33 231.94 218.37 236.10 217.54 240.14 C 217.10 242.50 215.52 244.41 214.40 246.47 C 213.79 240.14 213.58 233.78 213.27 227.43 Z" />
<path fill="#ffffff" opacity="1.00" d=" M 109.51 224.31 C 110.24 225.08 110.89 225.92 111.57 226.75 C 111.37 227.54 110.98 229.13 110.78 229.92 C 109.68 229.79 108.59 229.64 107.50 229.49 C 107.13 229.59 106.38 229.78 106.01 229.88 C 105.39 229.73 104.15 229.44 103.52 229.29 C 103.35 228.13 103.18 226.97 103.00 225.81 C 103.46 226.25 104.36 227.12 104.81 227.56 C 105.30 227.60 106.29 227.69 106.78 227.73 C 106.48 226.95 105.87 225.40 105.56 224.62 C 106.93 225.79 108.24 227.04 109.55 228.28 C 109.51 226.95 109.46 225.63 109.51 224.31 Z" />
<path fill="#ffffff" opacity="1.00" d=" M 223.51 224.87 C 224.77 225.90 226.01 226.96 227.26 228.01 C 226.42 228.96 225.57 229.91 224.73 230.86 C 223.52 229.77 222.32 228.67 221.12 227.57 C 221.91 226.67 222.71 225.77 223.51 224.87 Z" />
<path fill="#ffffff" opacity="1.00" d=" M 52.01 230.52 C 52.91 229.71 53.81 228.90 54.72 228.10 C 55.86 229.16 57.01 230.22 58.15 231.28 C 57.30 232.20 56.44 233.12 55.57 234.03 C 54.37 232.88 53.17 231.72 52.01 230.52 Z" />
<path fill="#ffffff" opacity="1.00" d=" M 189.40 229.43 C 192.57 228.71 195.06 231.91 197.11 233.91 C 200.31 236.95 197.60 241.42 196.67 244.86 C 193.25 245.20 189.79 245.14 186.42 244.43 C 185.68 239.29 186.72 233.88 189.40 229.43 M 190.73 234.13 C 190.23 235.61 189.77 237.10 189.36 238.60 C 191.30 238.91 193.27 239.11 195.24 239.24 C 194.41 236.99 193.02 235.03 190.73 234.13 Z" />
<path fill="#ffffff" opacity="1.00" d=" M 75.05 235.25 C 76.17 233.72 77.30 232.20 78.53 230.76 C 81.33 235.22 80.06 240.36 78.23 244.90 C 73.73 245.20 69.23 244.74 64.74 245.07 C 64.28 246.87 63.79 248.68 63.33 250.49 C 59.75 252.86 54.58 255.45 50.68 252.38 C 45.97 248.37 48.91 241.63 50.36 236.74 C 50.46 240.00 49.68 243.65 51.55 246.55 C 54.73 249.40 59.33 247.34 62.16 244.99 C 61.44 242.22 60.50 239.51 59.20 236.95 C 60.21 235.61 61.22 234.28 62.23 232.94 C 63.17 234.86 64.02 236.83 64.73 238.85 C 68.82 238.97 72.91 238.98 77.00 238.80 C 76.35 237.61 75.70 236.43 75.05 235.25 Z" />
<path fill="#ffffff" opacity="1.00" d=" M 233.63 244.40 C 230.39 239.44 234.19 233.60 237.88 230.11 C 239.75 231.18 241.51 232.60 242.30 234.68 C 244.79 240.91 243.91 249.02 238.52 253.47 C 235.27 255.25 233.10 251.23 231.64 248.98 C 235.06 249.34 238.26 248.19 240.36 245.43 C 238.12 245.05 235.87 244.72 233.63 244.40 M 236.62 235.75 C 236.37 236.76 236.14 237.78 235.92 238.80 C 237.32 238.82 238.73 238.84 240.13 238.85 C 239.60 237.74 239.05 236.64 238.51 235.54 C 238.03 235.59 237.09 235.69 236.62 235.75 Z" />
<path fill="#ffffff" opacity="1.00" d=" M 226.45 234.18 C 228.09 237.21 229.80 240.62 228.82 244.16 C 227.96 247.67 226.64 251.58 223.49 253.66 C 220.14 255.00 218.31 250.96 216.75 248.80 C 221.21 249.84 224.85 246.95 226.63 243.12 C 225.57 241.37 224.52 239.61 223.42 237.88 C 224.43 236.65 225.43 235.41 226.45 234.18 Z" />
<path fill="#ffffff" opacity="1.00" d=" M 84.39 237.84 C 85.47 236.61 86.56 235.40 87.68 234.22 C 88.43 235.86 89.17 237.51 89.90 239.16 C 90.71 239.13 92.33 239.06 93.14 239.02 C 94.52 240.78 94.80 242.92 94.70 245.11 C 93.06 245.09 91.43 245.08 89.80 245.06 C 88.55 248.13 87.26 251.45 84.55 253.53 C 82.87 254.55 81.23 253.12 79.83 252.33 C 79.35 252.86 78.38 253.91 77.89 254.44 C 76.39 253.44 74.78 252.72 73.44 254.51 C 72.33 253.41 71.17 252.34 70.19 251.12 C 71.26 249.06 73.17 248.92 75.13 249.83 C 75.61 249.48 76.59 248.79 77.08 248.45 C 77.62 249.37 78.17 250.29 78.72 251.21 C 78.53 250.60 78.15 249.38 77.97 248.77 C 82.31 249.80 85.91 246.89 87.57 243.13 C 86.53 241.35 85.47 239.59 84.39 237.84 Z" />
<path fill="#ffffff" opacity="1.00" d=" M 203.32 237.74 C 204.46 236.60 205.61 235.47 206.82 234.41 C 208.02 237.41 209.73 240.58 208.90 243.92 C 208.08 247.52 206.71 251.50 203.48 253.63 C 199.98 254.99 198.21 250.67 196.41 248.50 C 198.31 248.67 200.39 249.21 202.17 248.23 C 204.26 247.18 205.34 245.01 206.58 243.16 C 205.52 241.33 204.44 239.52 203.32 237.74 Z" />
<path fill="#ffffff" opacity="1.00" d=" M 107.04 250.14 C 107.95 249.26 108.86 248.38 109.76 247.50 C 110.87 248.52 111.99 249.52 113.12 250.53 C 112.39 251.58 111.64 252.63 110.89 253.68 C 109.60 252.50 108.32 251.32 107.04 250.14 Z" />
</g>
<g id="#16c401ff">
<path fill="#16c401" opacity="1.00" d=" M 150.62 28.41 C 151.20 25.92 153.29 24.57 155.30 23.32 C 155.43 24.04 155.68 25.49 155.81 26.21 C 159.49 26.34 162.57 28.61 165.41 30.72 C 167.13 32.01 167.23 34.37 167.83 36.27 C 170.13 37.50 172.61 38.32 175.15 38.92 C 177.79 42.30 180.17 45.90 181.84 49.86 C 178.20 48.48 174.52 46.82 170.52 47.28 C 170.51 47.81 170.51 48.87 170.51 49.39 C 173.63 51.49 177.95 51.52 180.29 54.74 C 184.85 60.18 189.67 65.63 195.89 69.23 C 199.65 71.56 204.15 73.00 206.82 76.77 C 201.95 77.49 197.90 73.82 193.14 74.43 C 189.06 73.12 184.47 72.46 180.66 74.87 C 182.87 76.35 185.20 78.17 187.98 78.17 C 189.48 77.65 190.90 76.92 192.32 76.22 C 192.07 78.61 194.11 78.60 195.89 78.73 C 204.16 83.99 215.68 83.33 222.42 91.07 C 218.10 91.35 213.76 91.19 209.43 91.38 C 209.37 92.07 209.24 93.45 209.18 94.14 C 217.84 96.56 226.47 99.28 234.36 103.68 C 236.67 105.55 234.84 108.61 232.97 110.03 C 234.60 110.80 236.23 111.63 237.51 112.93 C 232.66 113.07 228.60 110.09 224.18 108.60 C 219.12 106.34 213.48 106.59 208.08 106.70 C 207.53 107.54 206.98 108.39 206.43 109.23 C 205.89 111.43 204.97 113.63 205.28 115.93 C 206.81 117.44 208.99 117.50 210.66 116.18 C 210.63 115.37 210.58 113.75 210.56 112.94 C 219.21 115.33 228.18 117.13 236.22 121.25 C 238.48 126.06 243.44 128.22 247.82 130.62 C 247.23 131.20 246.06 132.35 245.47 132.93 C 245.61 134.61 245.75 136.29 245.87 137.98 C 239.68 136.97 233.64 135.07 227.93 132.51 C 224.59 126.77 216.78 126.66 210.89 126.23 C 210.49 125.71 209.69 124.68 209.28 124.16 C 208.30 124.64 207.32 125.12 206.35 125.62 C 206.05 125.11 205.45 124.10 205.15 123.59 C 202.23 123.72 196.62 123.81 197.10 127.98 C 197.78 129.30 199.21 129.98 200.52 130.53 C 206.43 132.60 213.40 132.40 218.34 136.70 C 221.86 140.11 226.95 140.71 231.12 143.01 C 237.31 146.42 243.95 149.23 249.26 154.02 C 249.20 154.74 249.15 155.47 249.09 156.20 C 247.15 156.45 245.20 156.66 243.25 156.81 C 240.01 154.28 236.50 151.86 232.39 151.09 C 232.14 150.76 231.65 150.10 231.40 149.77 C 233.42 149.69 236.04 150.23 237.11 147.92 C 235.16 147.00 233.13 146.25 231.08 145.61 C 230.30 145.93 228.75 146.56 227.98 146.88 C 228.54 148.40 229.99 148.95 231.55 149.01 C 230.92 149.55 230.29 150.08 229.67 150.62 C 223.75 149.74 218.00 147.87 212.02 147.37 C 211.47 146.68 210.92 145.99 210.37 145.31 C 207.01 144.89 204.17 147.24 203.80 150.57 C 205.93 150.95 208.10 150.92 210.22 150.51 C 210.58 151.00 211.29 151.99 211.65 152.48 C 217.15 152.08 222.65 152.64 227.72 154.94 C 232.84 160.98 241.79 161.42 247.10 167.18 C 246.16 167.25 244.28 167.39 243.34 167.46 C 243.19 168.05 242.90 169.21 242.75 169.80 C 237.86 168.33 233.77 164.53 228.57 164.23 C 227.77 165.63 227.14 167.11 226.45 168.57 C 222.41 168.27 219.02 165.57 214.94 165.55 C 212.28 165.42 209.67 164.76 207.01 164.69 C 204.47 164.95 202.11 165.97 199.72 166.76 C 196.77 167.88 193.49 167.42 190.53 168.48 C 188.55 169.01 187.30 170.75 185.87 172.07 C 181.02 172.17 175.37 173.91 173.80 179.07 C 171.69 188.86 171.46 199.46 175.75 208.72 C 158.33 208.68 140.90 208.67 123.48 208.71 C 125.13 202.24 127.97 195.71 126.71 188.91 C 125.96 184.08 126.75 177.77 121.97 174.77 C 116.94 171.33 110.47 172.55 104.81 171.12 C 103.35 171.03 102.91 169.44 102.12 168.51 C 98.18 167.12 92.95 168.24 89.97 164.83 C 92.07 164.58 94.18 164.45 96.29 164.31 C 96.37 163.87 96.53 162.99 96.61 162.55 C 92.73 162.35 88.85 162.50 84.99 162.99 C 76.96 164.21 68.89 161.42 60.86 162.87 C 58.26 163.59 55.71 162.59 53.20 162.00 C 53.29 161.50 53.46 160.50 53.54 159.99 C 56.42 159.55 58.17 157.19 60.37 155.58 C 66.14 152.49 72.98 152.23 78.61 148.81 C 83.30 146.93 89.86 148.79 92.78 143.57 C 97.29 144.85 101.94 144.45 106.56 144.30 C 107.89 141.53 106.89 137.83 104.12 136.37 C 101.87 135.42 100.23 137.43 98.80 138.80 C 95.66 138.82 89.21 137.50 89.52 142.36 C 88.74 141.83 87.19 140.78 86.41 140.26 C 83.12 142.76 78.61 140.73 74.97 142.40 C 71.21 143.96 66.95 143.50 63.29 145.36 C 55.71 142.38 48.69 147.97 41.16 147.96 C 41.21 146.87 41.26 145.77 41.33 144.68 C 43.40 144.20 45.49 143.81 47.54 143.25 C 47.11 142.20 46.57 141.20 46.16 140.14 C 49.33 137.97 52.59 135.91 55.08 132.93 C 59.14 132.15 62.95 130.38 66.18 127.80 C 64.81 126.66 63.08 126.37 61.39 126.10 C 61.46 125.34 61.52 124.58 61.59 123.81 C 70.30 119.66 80.12 119.63 89.30 117.13 C 89.54 116.72 90.03 115.89 90.28 115.48 C 98.23 114.90 106.59 116.44 114.14 113.18 C 113.71 112.60 112.85 111.45 112.41 110.87 C 113.52 109.37 114.58 106.91 112.55 105.66 C 110.40 104.50 108.87 106.79 107.63 108.17 C 104.68 106.70 101.38 107.10 98.32 107.91 C 96.80 108.35 95.52 109.24 94.43 110.36 C 93.05 110.23 91.69 110.27 90.34 110.49 C 89.35 111.59 89.39 113.18 89.05 114.54 C 88.07 111.43 85.87 109.01 83.10 107.36 C 81.74 107.61 80.39 107.87 79.04 108.15 C 74.31 107.08 69.58 109.44 64.81 108.41 C 66.45 106.46 68.43 104.85 70.58 103.50 C 74.02 101.38 76.27 97.44 80.45 96.60 C 86.85 94.91 93.48 93.42 100.13 93.71 C 102.46 92.66 103.48 90.67 102.51 88.12 C 105.05 89.72 107.52 91.95 110.74 91.66 C 111.61 89.62 113.72 88.81 115.41 87.61 C 111.64 86.86 107.82 86.46 104.00 86.20 C 103.27 87.04 102.54 87.88 101.77 88.70 L 101.36 86.88 C 99.77 87.45 97.53 87.55 97.17 89.63 C 93.78 89.25 90.37 89.20 86.97 89.13 C 86.90 86.78 89.04 86.83 90.76 86.49 C 90.68 85.20 90.59 83.92 90.49 82.63 C 93.24 81.06 96.19 79.95 99.24 79.13 C 104.29 77.70 108.74 74.60 113.94 73.64 C 116.56 73.20 119.05 72.25 121.32 70.89 C 117.77 68.28 112.25 68.71 108.96 71.59 C 107.48 71.19 106.05 70.61 104.54 70.39 C 103.20 71.27 101.99 72.32 100.65 73.20 C 102.59 69.83 106.18 68.03 109.34 66.02 C 109.45 65.00 109.56 63.99 109.67 62.97 C 111.58 62.81 113.50 62.62 115.41 62.35 C 114.40 61.21 113.03 60.57 111.68 59.96 C 113.37 59.28 115.09 58.63 116.71 57.79 C 121.18 55.31 126.51 54.61 130.53 51.28 C 131.85 50.42 132.21 48.80 132.62 47.40 C 128.36 47.36 126.21 52.05 121.97 52.00 C 122.03 49.29 123.28 46.38 126.06 45.53 C 129.23 45.10 132.48 45.28 135.55 44.25 C 135.23 42.73 134.86 41.21 134.49 39.69 C 137.31 38.97 140.12 38.01 142.49 36.26 C 142.56 35.75 142.71 34.73 142.78 34.22 C 140.93 34.49 138.94 34.77 137.77 36.42 C 137.33 36.45 136.44 36.51 136.00 36.54 C 137.42 33.02 140.39 30.55 143.45 28.47 C 145.73 27.61 148.46 29.72 150.62 28.41 M 139.68 45.25 C 139.49 46.43 139.32 47.60 139.17 48.78 C 140.96 48.79 142.76 48.72 144.55 48.57 C 144.49 48.14 144.38 47.27 144.33 46.83 C 142.78 46.29 141.24 45.74 139.68 45.25 M 146.60 46.98 C 147.39 48.02 148.23 49.09 149.53 49.53 C 153.23 51.13 157.11 52.58 161.20 52.66 C 157.64 48.36 152.30 45.49 146.60 46.98 M 125.51 59.67 C 125.51 60.57 125.51 61.47 125.53 62.37 C 126.06 62.42 127.12 62.53 127.65 62.59 C 128.25 61.87 128.85 61.16 129.46 60.45 C 129.41 59.95 129.32 58.96 129.27 58.46 C 128.01 58.85 126.76 59.26 125.51 59.67 M 178.07 59.87 C 180.80 61.32 183.67 62.69 186.83 62.78 C 185.02 60.32 180.95 57.04 178.07 59.87 M 147.47 59.53 C 146.28 60.53 146.32 61.46 147.59 62.32 C 151.45 63.46 155.69 62.00 159.46 63.70 C 161.66 64.62 164.04 64.95 166.42 64.85 C 165.14 60.78 160.39 61.09 157.14 59.69 C 154.09 58.31 150.57 58.29 147.47 59.53 M 138.43 65.59 C 138.36 66.02 138.21 66.86 138.13 67.29 C 138.97 67.62 140.64 68.29 141.47 68.63 C 142.33 67.32 142.79 65.83 143.03 64.29 C 141.48 64.67 139.95 65.12 138.43 65.59 M 126.95 68.08 C 128.83 70.55 131.67 71.68 134.74 71.33 C 139.01 73.39 144.11 74.21 148.68 72.74 C 148.75 71.64 148.77 70.54 148.74 69.44 C 144.56 68.85 140.34 69.31 136.16 69.65 C 135.63 67.98 135.45 65.12 133.05 65.26 C 130.52 64.55 128.72 66.72 126.95 68.08 M 121.68 67.59 C 120.80 70.52 124.45 71.06 126.46 71.70 C 126.84 70.28 126.93 68.83 126.68 67.39 C 125.01 67.40 123.33 67.36 121.68 67.59 M 151.08 69.45 C 150.66 70.08 149.83 71.33 149.42 71.95 C 149.77 72.61 150.48 73.91 150.83 74.56 C 154.48 75.80 158.42 75.58 161.99 74.15 C 163.27 76.81 169.42 80.17 168.68 74.93 C 166.68 73.29 164.01 72.73 161.56 73.61 C 161.59 73.10 161.66 72.10 161.70 71.59 C 158.23 70.55 154.67 69.86 151.08 69.45 M 139.18 93.10 C 140.79 94.37 142.89 94.35 144.83 94.51 C 144.48 93.16 144.49 91.50 143.10 90.74 C 141.51 90.48 138.77 90.95 139.18 93.10 M 147.10 91.78 C 147.23 93.21 147.47 94.63 147.78 96.04 C 148.24 95.59 149.15 94.71 149.60 94.26 L 149.02 96.07 C 149.91 95.97 151.68 95.77 152.57 95.67 C 153.88 94.28 153.63 91.88 152.10 90.75 C 150.37 90.42 148.74 91.42 147.10 91.78 M 154.01 94.09 C 157.73 97.04 162.30 94.18 166.30 93.39 C 166.44 92.36 166.59 91.34 166.74 90.32 C 162.48 91.47 156.96 90.10 154.01 94.09 M 128.15 104.95 C 127.81 109.82 135.31 113.69 138.48 109.29 C 138.33 106.30 136.17 104.08 134.13 102.15 C 132.11 103.04 130.13 104.00 128.15 104.95 M 122.87 104.19 C 122.55 107.29 121.49 110.35 121.84 113.49 C 121.97 114.93 123.68 115.15 124.82 114.78 C 127.11 112.95 128.26 109.72 127.58 106.86 C 126.48 105.29 124.56 104.82 122.87 104.19 M 191.74 106.96 C 195.69 109.26 201.04 112.59 205.35 109.29 C 205.49 108.36 205.76 106.51 205.90 105.59 C 201.30 103.91 195.71 103.71 191.74 106.96 M 146.10 107.56 C 146.91 111.11 150.99 112.17 154.14 111.27 C 155.38 110.28 155.60 108.66 156.10 107.27 C 152.79 106.64 149.30 106.19 146.10 107.56 M 128.39 117.13 C 134.02 116.94 139.37 120.58 144.94 118.31 C 143.48 116.21 142.06 113.12 139.05 113.22 C 135.27 113.37 131.11 114.31 128.39 117.13 M 163.81 119.85 C 159.99 122.65 163.83 128.92 167.95 128.39 C 171.05 127.99 174.26 126.25 175.36 123.16 C 175.05 121.94 174.70 120.73 174.31 119.53 C 170.84 119.12 167.17 118.62 163.81 119.85 M 145.47 119.84 C 147.19 122.67 150.84 122.55 153.74 122.52 C 153.32 118.03 148.45 119.92 145.47 119.84 M 179.49 121.94 C 178.30 125.61 183.23 126.80 185.95 126.31 C 189.29 125.83 193.92 126.58 195.71 123.00 C 190.81 121.02 183.95 117.32 179.49 121.94 M 108.42 138.16 C 109.24 139.23 110.05 140.32 110.98 141.29 C 114.35 141.32 115.91 137.68 118.01 135.63 C 115.33 134.99 112.59 135.11 109.90 135.53 C 109.53 136.19 108.79 137.51 108.42 138.16 M 167.32 151.54 C 169.21 153.11 171.39 154.41 173.85 154.82 C 178.81 155.70 183.91 157.18 188.97 156.18 C 189.90 155.65 191.32 155.05 190.28 153.84 C 185.64 151.89 180.36 153.44 175.75 151.48 C 173.04 150.29 170.07 150.85 167.32 151.54 M 74.29 155.59 C 74.64 156.70 75.98 156.47 76.89 156.65 C 82.18 156.80 87.83 157.22 92.62 154.51 C 87.00 151.10 79.50 151.66 74.29 155.59 M 94.60 155.11 C 93.34 157.81 96.73 158.85 98.59 159.79 C 101.81 161.23 106.88 161.15 107.76 156.91 C 103.45 156.01 99.06 154.15 94.60 155.11 M 124.45 166.98 C 126.81 169.65 128.93 172.63 131.90 174.67 C 132.47 174.58 133.61 174.39 134.19 174.30 C 135.42 170.07 134.52 165.56 132.20 161.87 C 131.63 161.60 130.48 161.07 129.91 160.80 C 127.87 162.66 126.05 164.73 124.45 166.98 M 146.76 162.68 C 144.10 165.63 146.63 172.78 151.14 171.27 C 153.28 169.42 153.10 166.32 153.53 163.77 C 151.64 162.66 148.34 159.68 146.76 162.68 M 192.84 166.77 C 194.87 166.83 196.90 166.81 198.92 166.68 C 198.85 165.93 198.72 164.42 198.65 163.67 C 197.69 163.21 196.72 162.76 195.76 162.30 C 194.51 163.59 193.23 164.93 192.84 166.77 M 115.29 163.18 C 113.99 166.74 117.41 169.08 120.50 169.55 C 121.29 166.12 118.62 163.34 115.29 163.18 M 169.36 173.92 C 173.36 172.59 176.90 169.50 177.68 165.20 C 176.01 164.63 174.34 164.05 172.69 163.45 C 168.82 165.30 168.03 170.19 169.36 173.92 M 177.91 164.75 C 178.84 169.18 183.61 170.28 187.49 169.58 C 187.82 167.62 189.77 164.73 187.13 163.64 C 184.02 162.98 180.79 163.45 177.91 164.75 M 104.66 170.23 C 107.73 170.85 110.89 170.98 113.97 170.37 C 113.56 169.23 114.39 165.73 112.01 166.86 C 109.46 167.63 105.47 166.95 104.66 170.23 Z" />
<path fill="#16c401" opacity="1.00" d=" M 207.41 114.54 C 206.37 113.14 208.66 111.79 209.76 112.77 C 210.31 113.76 210.12 114.55 209.18 115.15 C 208.73 115.00 207.85 114.69 207.41 114.54 Z" />
</g>
<g id="#fd0201ff">
<path fill="#fd0201" opacity="1.00" d=" M 123.48 208.71 C 140.90 208.67 158.33 208.68 175.75 208.72 C 200.33 208.99 224.92 208.51 249.50 208.97 C 249.47 229.91 249.41 250.85 249.53 271.80 C 201.36 271.91 153.18 271.81 105.01 271.85 C 84.11 271.76 63.20 272.02 42.31 271.72 C 41.46 268.21 41.73 264.58 41.72 261.00 C 41.73 243.60 41.71 226.19 41.72 208.79 C 68.98 208.74 96.23 208.89 123.48 208.71 M 191.10 220.82 C 189.15 219.97 187.39 220.31 186.04 222.00 C 187.15 223.11 188.28 224.22 189.42 225.31 C 191.58 223.81 194.56 225.67 196.27 223.21 C 195.14 222.00 193.99 220.80 192.85 219.60 C 192.42 219.91 191.54 220.52 191.10 220.82 M 154.31 224.72 C 156.57 229.01 155.52 234.14 156.44 238.79 C 152.27 239.22 148.08 239.19 143.89 239.12 C 144.55 237.17 145.98 235.25 145.49 233.09 C 144.84 230.50 143.12 228.37 141.82 226.10 C 138.38 230.25 135.44 234.83 131.85 238.84 C 128.17 239.58 124.26 238.90 120.50 239.19 C 120.65 238.42 120.80 237.66 120.95 236.91 C 116.04 236.35 111.69 233.96 107.46 231.60 C 104.31 229.30 102.19 233.54 100.10 235.31 C 103.11 235.74 106.04 236.79 108.18 239.02 C 103.65 239.21 99.11 239.19 94.58 239.00 C 94.75 241.02 94.78 243.05 94.82 245.08 C 98.85 245.00 102.91 245.29 106.93 244.85 C 109.51 243.57 111.78 241.43 114.85 241.46 C 115.86 242.62 116.35 244.69 118.19 244.73 C 121.96 245.29 125.79 245.05 129.60 245.03 C 129.79 247.66 129.82 250.51 131.44 252.74 C 133.75 255.22 137.80 255.15 140.59 253.55 C 143.74 251.94 144.47 248.13 145.66 245.13 C 149.86 245.04 154.10 245.32 158.25 244.51 C 159.64 245.51 161.02 246.53 162.40 247.56 C 163.48 245.91 164.58 244.28 165.68 242.64 C 164.00 241.32 162.10 240.22 160.70 238.58 C 159.99 235.32 159.81 231.98 159.56 228.66 C 160.43 227.11 161.20 225.49 161.96 223.88 C 159.96 222.93 157.98 221.92 156.04 220.85 C 155.46 222.14 154.87 223.42 154.31 224.72 M 169.20 225.92 C 169.54 232.72 169.94 239.52 169.96 246.33 C 170.95 245.09 172.02 243.89 172.77 242.48 C 175.16 237.51 172.63 231.80 174.46 226.76 C 174.22 224.60 173.86 222.47 173.50 220.34 C 172.06 222.19 170.64 224.06 169.20 225.92 M 213.27 227.43 C 213.58 233.78 213.79 240.14 214.40 246.47 C 215.52 244.41 217.10 242.50 217.54 240.14 C 218.37 236.10 217.33 231.94 218.05 227.88 C 218.52 225.71 218.15 223.48 217.98 221.30 C 215.70 222.50 213.07 224.58 213.27 227.43 M 109.51 224.31 C 109.46 225.63 109.51 226.95 109.55 228.28 C 108.24 227.04 106.93 225.79 105.56 224.62 C 105.87 225.40 106.48 226.95 106.78 227.73 C 106.29 227.69 105.30 227.60 104.81 227.56 C 104.36 227.12 103.46 226.25 103.00 225.81 C 103.18 226.97 103.35 228.13 103.52 229.29 C 104.15 229.44 105.39 229.73 106.01 229.88 C 106.38 229.78 107.13 229.59 107.50 229.49 C 108.59 229.64 109.68 229.79 110.78 229.92 C 110.98 229.13 111.37 227.54 111.57 226.75 C 110.89 225.92 110.24 225.08 109.51 224.31 M 223.51 224.87 C 222.71 225.77 221.91 226.67 221.12 227.57 C 222.32 228.67 223.52 229.77 224.73 230.86 C 225.57 229.91 226.42 228.96 227.26 228.01 C 226.01 226.96 224.77 225.90 223.51 224.87 M 52.01 230.52 C 53.17 231.72 54.37 232.88 55.57 234.03 C 56.44 233.12 57.30 232.20 58.15 231.28 C 57.01 230.22 55.86 229.16 54.72 228.10 C 53.81 228.90 52.91 229.71 52.01 230.52 M 189.40 229.43 C 186.72 233.88 185.68 239.29 186.42 244.43 C 189.79 245.14 193.25 245.20 196.67 244.86 C 197.60 241.42 200.31 236.95 197.11 233.91 C 195.06 231.91 192.57 228.71 189.40 229.43 M 75.05 235.25 C 75.70 236.43 76.35 237.61 77.00 238.80 C 72.91 238.98 68.82 238.97 64.73 238.85 C 64.02 236.83 63.17 234.86 62.23 232.94 C 61.22 234.28 60.21 235.61 59.20 236.95 C 60.50 239.51 61.44 242.22 62.16 244.99 C 59.33 247.34 54.73 249.40 51.55 246.55 C 49.68 243.65 50.46 240.00 50.36 236.74 C 48.91 241.63 45.97 248.37 50.68 252.38 C 54.58 255.45 59.75 252.86 63.33 250.49 C 63.79 248.68 64.28 246.87 64.74 245.07 C 69.23 244.74 73.73 245.20 78.23 244.90 C 80.06 240.36 81.33 235.22 78.53 230.76 C 77.30 232.20 76.17 233.72 75.05 235.25 M 233.63 244.40 C 235.87 244.72 238.12 245.05 240.36 245.43 C 238.26 248.19 235.06 249.34 231.64 248.98 C 233.10 251.23 235.27 255.25 238.52 253.47 C 243.91 249.02 244.79 240.91 242.30 234.68 C 241.51 232.60 239.75 231.18 237.88 230.11 C 234.19 233.60 230.39 239.44 233.63 244.40 M 226.45 234.18 C 225.43 235.41 224.43 236.65 223.42 237.88 C 224.52 239.61 225.57 241.37 226.63 243.12 C 224.85 246.95 221.21 249.84 216.75 248.80 C 218.31 250.96 220.14 255.00 223.49 253.66 C 226.64 251.58 227.96 247.67 228.82 244.16 C 229.80 240.62 228.09 237.21 226.45 234.18 M 84.39 237.84 C 85.47 239.59 86.53 241.35 87.57 243.13 C 85.91 246.89 82.31 249.80 77.97 248.77 C 78.15 249.38 78.53 250.60 78.72 251.21 C 78.17 250.29 77.62 249.37 77.08 248.45 C 76.59 248.79 75.61 249.48 75.13 249.83 C 73.17 248.92 71.26 249.06 70.19 251.12 C 71.17 252.34 72.33 253.41 73.44 254.51 C 74.78 252.72 76.39 253.44 77.89 254.44 C 78.38 253.91 79.35 252.86 79.83 252.33 C 81.23 253.12 82.87 254.55 84.55 253.53 C 87.26 251.45 88.55 248.13 89.80 245.06 C 91.43 245.08 93.06 245.09 94.70 245.11 C 94.80 242.92 94.52 240.78 93.14 239.02 C 92.33 239.06 90.71 239.13 89.90 239.16 C 89.17 237.51 88.43 235.86 87.68 234.22 C 86.56 235.40 85.47 236.61 84.39 237.84 M 203.32 237.74 C 204.44 239.52 205.52 241.33 206.58 243.16 C 205.34 245.01 204.26 247.18 202.17 248.23 C 200.39 249.21 198.31 248.67 196.41 248.50 C 198.21 250.67 199.98 254.99 203.48 253.63 C 206.71 251.50 208.08 247.52 208.90 243.92 C 209.73 240.58 208.02 237.41 206.82 234.41 C 205.61 235.47 204.46 236.60 203.32 237.74 M 107.04 250.14 C 108.32 251.32 109.60 252.50 110.89 253.68 C 111.64 252.63 112.39 251.58 113.12 250.53 C 111.99 249.52 110.87 248.52 109.76 247.50 C 108.86 248.38 107.95 249.26 107.04 250.14 Z" />
<path fill="#fd0201" opacity="1.00" d=" M 136.15 238.99 C 137.67 236.99 138.82 234.56 140.96 233.12 C 141.46 234.61 141.92 236.38 140.77 237.71 C 139.89 239.36 137.65 238.65 136.15 238.99 Z" />
<path fill="#fd0201" opacity="1.00" d=" M 190.73 234.13 C 193.02 235.03 194.41 236.99 195.24 239.24 C 193.27 239.11 191.30 238.91 189.36 238.60 C 189.77 237.10 190.23 235.61 190.73 234.13 Z" />
<path fill="#fd0201" opacity="1.00" d=" M 236.62 235.75 C 237.09 235.69 238.03 235.59 238.51 235.54 C 239.05 236.64 239.60 237.74 240.13 238.85 C 238.73 238.84 237.32 238.82 235.92 238.80 C 236.14 237.78 236.37 236.76 236.62 235.75 Z" />
<path fill="#fd0201" opacity="1.00" d=" M 133.06 245.27 C 135.44 245.06 137.83 245.15 140.20 245.49 C 140.71 246.36 141.23 247.22 141.75 248.10 C 139.53 248.63 136.97 249.63 134.84 248.28 C 134.15 247.33 133.62 246.29 133.06 245.27 Z" />
</g>
</svg>
